<svg xmlns="http://www.w3.org/2000/svg" viewBox="0 0 1440 960" preserveAspectRatio="xMidYMid slice"><circle cx="-52" cy="56.6" r="40" fill="white"/><circle cx="7.384615384615387" cy="56.6" r="40" fill="white"/><circle cx="66.76923076923077" cy="56.6" r="40" fill="white"/><circle cx="126.15384615384616" cy="56.6" r="40" fill="white"/><circle cx="185.53846153846155" cy="56.6" r="40" fill="white"/><circle cx="244.9230769230769" cy="56.6" r="40" fill="white"/><circle cx="304.3076923076923" cy="56.6" r="40" fill="white"/><circle cx="363.69230769230774" cy="56.6" r="40" fill="white"/><circle cx="423.0769230769231" cy="56.6" r="40" fill="white"/><circle cx="482.46153846153845" cy="56.6" r="40" fill="white"/><circle cx="541.8461538461538" cy="56.6" r="40" fill="white"/><circle cx="601.2307692307693" cy="56.6" r="40" fill="white"/><circle cx="660.6153846153846" cy="56.6" r="40" fill="white"/><circle cx="720" cy="56.6" r="40" fill="white"/><circle cx="779.3846153846155" cy="56.6" r="40" fill="white"/><circle cx="838.7692307692308" cy="56.6" r="40" fill="white"/><circle cx="898.1538461538462" cy="56.6" r="40" fill="white"/><circle cx="957.5384615384615" cy="56.6" r="40" fill="white"/><circle cx="1016.9230769230769" cy="56.6" r="40" fill="white"/><circle cx="1076.3076923076924" cy="56.6" r="40" fill="white"/><circle cx="1135.6923076923076" cy="56.6" r="40" fill="white"/><circle cx="1195.076923076923" cy="56.6" r="40" fill="white"/><circle cx="1254.4615384615386" cy="56.6" r="40" fill="white"/><circle cx="1313.8461538461538" cy="56.6" r="40" fill="white"/><circle cx="1373.2307692307693" cy="56.6" r="40" fill="white"/><circle cx="1432.6153846153848" cy="56.6" r="40" fill="white"/><circle cx="1492" cy="56.6" r="40" fill="white"/><circle cx="-16.909090909090907" cy="92.6" r="40" fill="white"/><circle cx="53.27272727272728" cy="92.6" r="40" fill="white"/><circle cx="123.45454545454547" cy="92.6" r="40" fill="white"/><circle cx="193.63636363636365" cy="92.6" r="40" fill="white"/><circle cx="263.81818181818187" cy="92.6" r="40" fill="white"/><circle cx="334" cy="92.6" r="40" fill="white"/><circle cx="404.18181818181824" cy="92.6" r="40" fill="white"/><circle cx="474.3636363636364" cy="92.6" r="40" fill="white"/><circle cx="544.5454545454546" cy="92.6" r="40" fill="white"/><circle cx="614.7272727272729" cy="92.6" r="40" fill="white"/><circle cx="684.909090909091" cy="92.6" r="40" fill="white"/><circle cx="755.0909090909091" cy="92.6" r="40" fill="white"/><circle cx="825.2727272727274" cy="92.6" r="40" fill="white"/><circle cx="895.4545454545456" cy="92.6" r="40" fill="white"/><circle cx="965.6363636363637" cy="92.6" r="40" fill="white"/><circle cx="1035.8181818181818" cy="92.6" r="40" fill="white"/><circle cx="1106" cy="92.6" r="40" fill="white"/><circle cx="1176.1818181818182" cy="92.6" r="40" fill="white"/><circle cx="1246.3636363636365" cy="92.6" r="40" fill="white"/><circle cx="1316.5454545454545" cy="92.6" r="40" fill="white"/><circle cx="1386.7272727272727" cy="92.6" r="40" fill="white"/><circle cx="1456.909090909091" cy="92.6" r="40" fill="white"/><circle cx="1527.090909090909" cy="92.6" r="40" fill="white"/><circle cx="-52" cy="133.45837155249748" r="40" fill="white"/><circle cx="33.77777777777777" cy="133.45837155249748" r="40" fill="white"/><circle cx="119.55555555555554" cy="133.45837155249748" r="40" fill="white"/><circle cx="205.33333333333331" cy="133.45837155249748" r="40" fill="white"/><circle cx="291.1111111111111" cy="133.45837155249748" r="40" fill="white"/><circle cx="376.88888888888886" cy="133.45837155249748" r="40" fill="white"/><circle cx="462.66666666666663" cy="133.45837155249748" r="40" fill="white"/><circle cx="548.4444444444443" cy="133.45837155249748" r="40" fill="white"/><circle cx="634.2222222222222" cy="133.45837155249748" r="40" fill="white"/><circle cx="720" cy="133.45837155249748" r="40" fill="white"/><circle cx="805.7777777777777" cy="133.45837155249748" r="40" fill="white"/><circle cx="891.5555555555554" cy="133.45837155249748" r="40" fill="white"/><circle cx="977.3333333333333" cy="133.45837155249748" r="40" fill="white"/><circle cx="1063.111111111111" cy="133.45837155249748" r="40" fill="white"/><circle cx="1148.8888888888887" cy="133.45837155249748" r="40" fill="white"/><circle cx="1234.6666666666665" cy="133.45837155249748" r="40" fill="white"/><circle cx="1320.4444444444443" cy="133.45837155249748" r="40" fill="white"/><circle cx="1406.2222222222222" cy="133.45837155249748" r="40" fill="white"/><circle cx="1492" cy="133.45837155249748" r="40" fill="white"/><circle cx="13.125" cy="180.619978373134" r="40" fill="white"/><circle cx="107.375" cy="180.619978373134" r="40" fill="white"/><circle cx="201.625" cy="180.619978373134" r="40" fill="white"/><circle cx="295.875" cy="180.619978373134" r="40" fill="white"/><circle cx="390.125" cy="180.619978373134" r="40" fill="white"/><circle cx="484.375" cy="180.619978373134" r="40" fill="white"/><circle cx="578.625" cy="180.619978373134" r="40" fill="white"/><circle cx="672.875" cy="180.619978373134" r="40" fill="white"/><circle cx="767.125" cy="180.619978373134" r="40" fill="white"/><circle cx="861.375" cy="180.619978373134" r="40" fill="white"/><circle cx="955.625" cy="180.619978373134" r="40" fill="white"/><circle cx="1049.875" cy="180.619978373134" r="40" fill="white"/><circle cx="1144.125" cy="180.619978373134" r="40" fill="white"/><circle cx="1238.375" cy="180.619978373134" r="40" fill="white"/><circle cx="1332.625" cy="180.619978373134" r="40" fill="white"/><circle cx="1426.875" cy="180.619978373134" r="40" fill="white"/><circle cx="1521.125" cy="180.619978373134" r="40" fill="white"/><circle cx="-34" cy="234.77664965041598" r="40" fill="white"/><circle cx="66.53333333333333" cy="234.77664965041598" r="40" fill="white"/><circle cx="167.06666666666666" cy="234.77664965041598" r="40" fill="white"/><circle cx="267.6" cy="234.77664965041598" r="40" fill="white"/><circle cx="368.1333333333333" cy="234.77664965041598" r="40" fill="white"/><circle cx="468.66666666666663" cy="234.77664965041598" r="40" fill="white"/><circle cx="569.2" cy="234.77664965041598" r="40" fill="white"/><circle cx="669.7333333333333" cy="234.77664965041598" r="40" fill="white"/><circle cx="770.2666666666667" cy="234.77664965041598" r="40" fill="white"/><circle cx="870.8" cy="234.77664965041598" r="40" fill="white"/><circle cx="971.3333333333333" cy="234.77664965041598" r="40" fill="white"/><circle cx="1071.8666666666666" cy="234.77664965041598" r="40" fill="white"/><circle cx="1172.4" cy="234.77664965041598" r="40" fill="white"/><circle cx="1272.9333333333334" cy="234.77664965041598" r="40" fill="white"/><circle cx="1373.4666666666667" cy="234.77664965041598" r="40" fill="white"/><circle cx="1474" cy="234.77664965041598" r="40" fill="white"/><circle cx="-34" cy="296.41928843839366" r="40" fill="white"/><circle cx="73.71428571428571" cy="296.41928843839366" r="40" fill="white"/><circle cx="181.42857142857142" cy="296.41928843839366" r="40" fill="white"/><circle cx="289.1428571428571" cy="296.41928843839366" r="40" fill="white"/><circle cx="396.85714285714283" cy="296.41928843839366" r="40" fill="white"/><circle cx="504.57142857142856" cy="296.41928843839366" r="40" fill="white"/><circle cx="612.2857142857142" cy="296.41928843839366" r="40" fill="white"/><circle cx="720" cy="296.41928843839366" r="40" fill="white"/><circle cx="827.7142857142857" cy="296.41928843839366" r="40" fill="white"/><circle cx="935.4285714285713" cy="296.41928843839366" r="40" fill="white"/><circle cx="1043.142857142857" cy="296.41928843839366" r="40" fill="white"/><circle cx="1150.857142857143" cy="296.41928843839366" r="40" fill="white"/><circle cx="1258.5714285714284" cy="296.41928843839366" r="40" fill="white"/><circle cx="1366.2857142857142" cy="296.41928843839366" r="40" fill="white"/><circle cx="1474" cy="296.41928843839366" r="40" fill="white"/><circle cx="-34" cy="365.93548512529446" r="40" fill="white"/><circle cx="82" cy="365.93548512529446" r="40" fill="white"/><circle cx="198" cy="365.93548512529446" r="40" fill="white"/><circle cx="314" cy="365.93548512529446" r="40" fill="white"/><circle cx="430" cy="365.93548512529446" r="40" fill="white"/><circle cx="546" cy="365.93548512529446" r="40" fill="white"/><circle cx="662" cy="365.93548512529446" r="40" fill="white"/><circle cx="778" cy="365.93548512529446" r="40" fill="white"/><circle cx="894" cy="365.93548512529446" r="40" fill="white"/><circle cx="1010" cy="365.93548512529446" r="40" fill="white"/><circle cx="1126" cy="365.93548512529446" r="40" fill="white"/><circle cx="1242" cy="365.93548512529446" r="40" fill="white"/><circle cx="1358" cy="365.93548512529446" r="40" fill="white"/><circle cx="1474" cy="365.93548512529446" r="40" fill="white"/><circle cx="-34" cy="443.6485619821659" r="40" fill="white"/><circle cx="91.66666666666667" cy="443.6485619821659" r="40" fill="white"/><circle cx="217.33333333333334" cy="443.6485619821659" r="40" fill="white"/><circle cx="343" cy="443.6485619821659" r="40" fill="white"/><circle cx="468.6666666666667" cy="443.6485619821659" r="40" fill="white"/><circle cx="594.3333333333334" cy="443.6485619821659" r="40" fill="white"/><circle cx="720" cy="443.6485619821659" r="40" fill="white"/><circle cx="845.6666666666667" cy="443.6485619821659" r="40" fill="white"/><circle cx="971.3333333333334" cy="443.6485619821659" r="40" fill="white"/><circle cx="1097" cy="443.6485619821659" r="40" fill="white"/><circle cx="1222.6666666666667" cy="443.6485619821659" r="40" fill="white"/><circle cx="1348.3333333333335" cy="443.6485619821659" r="40" fill="white"/><circle cx="1474" cy="443.6485619821659" r="40" fill="white"/><circle cx="-34" cy="529.8375424057776" r="40" fill="white"/><circle cx="103.0909090909091" cy="529.8375424057776" r="40" fill="white"/><circle cx="240.1818181818182" cy="529.8375424057776" r="40" fill="white"/><circle cx="377.27272727272725" cy="529.8375424057776" r="40" fill="white"/><circle cx="514.3636363636364" cy="529.8375424057776" r="40" fill="white"/><circle cx="651.4545454545455" cy="529.8375424057776" r="40" fill="white"/><circle cx="788.5454545454545" cy="529.8375424057776" r="40" fill="white"/><circle cx="925.6363636363636" cy="529.8375424057776" r="40" fill="white"/><circle cx="1062.7272727272727" cy="529.8375424057776" r="40" fill="white"/><circle cx="1199.8181818181818" cy="529.8375424057776" r="40" fill="white"/><circle cx="1336.909090909091" cy="529.8375424057776" r="40" fill="white"/><circle cx="1474" cy="529.8375424057776" r="40" fill="white"/><circle cx="-34" cy="624.7488563928439" r="40" fill="white"/><circle cx="116.80000000000001" cy="624.7488563928439" r="40" fill="white"/><circle cx="267.6" cy="624.7488563928439" r="40" fill="white"/><circle cx="418.40000000000003" cy="624.7488563928439" r="40" fill="white"/><circle cx="569.2" cy="624.7488563928439" r="40" fill="white"/><circle cx="720" cy="624.7488563928439" r="40" fill="white"/><circle cx="870.8000000000001" cy="624.7488563928439" r="40" fill="white"/><circle cx="1021.6000000000001" cy="624.7488563928439" r="40" fill="white"/><circle cx="1172.4" cy="624.7488563928439" r="40" fill="white"/><circle cx="1323.2" cy="624.7488563928439" r="40" fill="white"/><circle cx="1474" cy="624.7488563928439" r="40" fill="white"/><circle cx="-34" cy="728.6038379044596" r="40" fill="white"/><circle cx="133.55555555555554" cy="728.6038379044596" r="40" fill="white"/><circle cx="301.1111111111111" cy="728.6038379044596" r="40" fill="white"/><circle cx="468.66666666666663" cy="728.6038379044596" r="40" fill="white"/><circle cx="636.2222222222222" cy="728.6038379044596" r="40" fill="white"/><circle cx="803.7777777777777" cy="728.6038379044596" r="40" fill="white"/><circle cx="971.3333333333333" cy="728.6038379044596" r="40" fill="white"/><circle cx="1138.8888888888887" cy="728.6038379044596" r="40" fill="white"/><circle cx="1306.4444444444443" cy="728.6038379044596" r="40" fill="white"/><circle cx="1474" cy="728.6038379044596" r="40" fill="white"/></svg>