<svg xmlns="http://www.w3.org/2000/svg" viewBox="0 0 768 1024" preserveAspectRatio="xMidYMid slice"><circle cx="-44.19999999999999" cy="49.56" r="34" fill="white"/><circle cx="3.377777777777787" cy="49.56" r="34" fill="white"/><circle cx="50.95555555555556" cy="49.56" r="34" fill="white"/><circle cx="98.53333333333333" cy="49.56" r="34" fill="white"/><circle cx="146.11111111111111" cy="49.56" r="34" fill="white"/><circle cx="193.6888888888889" cy="49.56" r="34" fill="white"/><circle cx="241.26666666666665" cy="49.56" r="34" fill="white"/><circle cx="288.84444444444443" cy="49.56" r="34" fill="white"/><circle cx="336.4222222222222" cy="49.56" r="34" fill="white"/><circle cx="384" cy="49.56" r="34" fill="white"/><circle cx="431.5777777777778" cy="49.56" r="34" fill="white"/><circle cx="479.1555555555555" cy="49.56" r="34" fill="white"/><circle cx="526.7333333333333" cy="49.56" r="34" fill="white"/><circle cx="574.3111111111111" cy="49.56" r="34" fill="white"/><circle cx="621.8888888888889" cy="49.56" r="34" fill="white"/><circle cx="669.4666666666667" cy="49.56" r="34" fill="white"/><circle cx="717.0444444444445" cy="49.56" r="34" fill="white"/><circle cx="764.6222222222223" cy="49.56" r="34" fill="white"/><circle cx="812.2" cy="49.56" r="34" fill="white"/><circle cx="-15.653333333333322" cy="84.56" r="34" fill="white"/><circle cx="41.44000000000001" cy="84.56" r="34" fill="white"/><circle cx="98.53333333333335" cy="84.56" r="34" fill="white"/><circle cx="155.62666666666667" cy="84.56" r="34" fill="white"/><circle cx="212.72000000000003" cy="84.56" r="34" fill="white"/><circle cx="269.8133333333334" cy="84.56" r="34" fill="white"/><circle cx="326.9066666666667" cy="84.56" r="34" fill="white"/><circle cx="384" cy="84.56" r="34" fill="white"/><circle cx="441.09333333333336" cy="84.56" r="34" fill="white"/><circle cx="498.1866666666667" cy="84.56" r="34" fill="white"/><circle cx="555.28" cy="84.56" r="34" fill="white"/><circle cx="612.3733333333332" cy="84.56" r="34" fill="white"/><circle cx="669.4666666666667" cy="84.56" r="34" fill="white"/><circle cx="726.56" cy="84.56" r="34" fill="white"/><circle cx="783.6533333333332" cy="84.56" r="34" fill="white"/><circle cx="840.7466666666667" cy="84.56" r="34" fill="white"/><circle cx="-44.19999999999993" cy="123.78075400466258" r="34" fill="white"/><circle cx="27.16666666666673" cy="123.78075400466258" r="34" fill="white"/><circle cx="98.53333333333339" cy="123.78075400466258" r="34" fill="white"/><circle cx="169.90000000000003" cy="123.78075400466258" r="34" fill="white"/><circle cx="241.2666666666667" cy="123.78075400466258" r="34" fill="white"/><circle cx="312.6333333333334" cy="123.78075400466258" r="34" fill="white"/><circle cx="384" cy="123.78075400466258" r="34" fill="white"/><circle cx="455.3666666666667" cy="123.78075400466258" r="34" fill="white"/><circle cx="526.7333333333333" cy="123.78075400466258" r="34" fill="white"/><circle cx="598.1" cy="123.78075400466258" r="34" fill="white"/><circle cx="669.4666666666667" cy="123.78075400466258" r="34" fill="white"/><circle cx="740.8333333333334" cy="123.78075400466258" r="34" fill="white"/><circle cx="812.1999999999999" cy="123.78075400466258" r="34" fill="white"/><circle cx="5.508333333333354" cy="168.4775003686687" r="34" fill="white"/><circle cx="74.32500000000002" cy="168.4775003686687" r="34" fill="white"/><circle cx="143.14166666666668" cy="168.4775003686687" r="34" fill="white"/><circle cx="211.95833333333334" cy="168.4775003686687" r="34" fill="white"/><circle cx="280.775" cy="168.4775003686687" r="34" fill="white"/><circle cx="349.5916666666667" cy="168.4775003686687" r="34" fill="white"/><circle cx="418.4083333333333" cy="168.4775003686687" r="34" fill="white"/><circle cx="487.225" cy="168.4775003686687" r="34" fill="white"/><circle cx="556.0416666666666" cy="168.4775003686687" r="34" fill="white"/><circle cx="624.8583333333332" cy="168.4775003686687" r="34" fill="white"/><circle cx="693.675" cy="168.4775003686687" r="34" fill="white"/><circle cx="762.4916666666667" cy="168.4775003686687" r="34" fill="white"/><circle cx="831.3083333333333" cy="168.4775003686687" r="34" fill="white"/><circle cx="-28.899999999999977" cy="219.25127192501154" r="34" fill="white"/><circle cx="46.172727272727286" cy="219.25127192501154" r="34" fill="white"/><circle cx="121.24545454545455" cy="219.25127192501154" r="34" fill="white"/><circle cx="196.3181818181818" cy="219.25127192501154" r="34" fill="white"/><circle cx="271.3909090909091" cy="219.25127192501154" r="34" fill="white"/><circle cx="346.46363636363634" cy="219.25127192501154" r="34" fill="white"/><circle cx="421.5363636363636" cy="219.25127192501154" r="34" fill="white"/><circle cx="496.6090909090909" cy="219.25127192501154" r="34" fill="white"/><circle cx="571.6818181818181" cy="219.25127192501154" r="34" fill="white"/><circle cx="646.7545454545453" cy="219.25127192501154" r="34" fill="white"/><circle cx="721.8272727272727" cy="219.25127192501154" r="34" fill="white"/><circle cx="796.9" cy="219.25127192501154" r="34" fill="white"/><circle cx="-28.899999999999977" cy="276.52854511932617" r="34" fill="white"/><circle cx="53.68000000000002" cy="276.52854511932617" r="34" fill="white"/><circle cx="136.26000000000002" cy="276.52854511932617" r="34" fill="white"/><circle cx="218.84000000000003" cy="276.52854511932617" r="34" fill="white"/><circle cx="301.42" cy="276.52854511932617" r="34" fill="white"/><circle cx="384" cy="276.52854511932617" r="34" fill="white"/><circle cx="466.58000000000004" cy="276.52854511932617" r="34" fill="white"/><circle cx="549.16" cy="276.52854511932617" r="34" fill="white"/><circle cx="631.74" cy="276.52854511932617" r="34" fill="white"/><circle cx="714.32" cy="276.52854511932617" r="34" fill="white"/><circle cx="796.9" cy="276.52854511932617" r="34" fill="white"/><circle cx="-28.899999999999977" cy="340.64604258914704" r="34" fill="white"/><circle cx="53.68000000000002" cy="340.64604258914704" r="34" fill="white"/><circle cx="136.26000000000002" cy="340.64604258914704" r="34" fill="white"/><circle cx="218.84000000000003" cy="340.64604258914704" r="34" fill="white"/><circle cx="301.42" cy="340.64604258914704" r="34" fill="white"/><circle cx="384" cy="340.64604258914704" r="34" fill="white"/><circle cx="466.58000000000004" cy="340.64604258914704" r="34" fill="white"/><circle cx="549.16" cy="340.64604258914704" r="34" fill="white"/><circle cx="631.74" cy="340.64604258914704" r="34" fill="white"/><circle cx="714.32" cy="340.64604258914704" r="34" fill="white"/><circle cx="796.9" cy="340.64604258914704" r="34" fill="white"/><circle cx="-28.899999999999977" cy="411.8846534668871" r="34" fill="white"/><circle cx="62.85555555555557" cy="411.8846534668871" r="34" fill="white"/><circle cx="154.61111111111111" cy="411.8846534668871" r="34" fill="white"/><circle cx="246.36666666666667" cy="411.8846534668871" r="34" fill="white"/><circle cx="338.1222222222222" cy="411.8846534668871" r="34" fill="white"/><circle cx="429.87777777777774" cy="411.8846534668871" r="34" fill="white"/><circle cx="521.6333333333333" cy="411.8846534668871" r="34" fill="white"/><circle cx="613.3888888888888" cy="411.8846534668871" r="34" fill="white"/><circle cx="705.1444444444444" cy="411.8846534668871" r="34" fill="white"/><circle cx="796.9" cy="411.8846534668871" r="34" fill="white"/><circle cx="-28.899999999999977" cy="490.48678183930343" r="34" fill="white"/><circle cx="74.32500000000002" cy="490.48678183930343" r="34" fill="white"/><circle cx="177.55" cy="490.48678183930343" r="34" fill="white"/><circle cx="280.775" cy="490.48678183930343" r="34" fill="white"/><circle cx="384" cy="490.48678183930343" r="34" fill="white"/><circle cx="487.225" cy="490.48678183930343" r="34" fill="white"/><circle cx="590.4499999999999" cy="490.48678183930343" r="34" fill="white"/><circle cx="693.675" cy="490.48678183930343" r="34" fill="white"/><circle cx="796.9" cy="490.48678183930343" r="34" fill="white"/><circle cx="-28.899999999999977" cy="576.6665159835609" r="34" fill="white"/><circle cx="89.07142857142858" cy="576.6665159835609" r="34" fill="white"/><circle cx="207.04285714285714" cy="576.6665159835609" r="34" fill="white"/><circle cx="325.01428571428573" cy="576.6665159835609" r="34" fill="white"/><circle cx="442.98571428571427" cy="576.6665159835609" r="34" fill="white"/><circle cx="560.9571428571428" cy="576.6665159835609" r="34" fill="white"/><circle cx="678.9285714285714" cy="576.6665159835609" r="34" fill="white"/><circle cx="796.9" cy="576.6665159835609" r="34" fill="white"/><circle cx="-28.899999999999977" cy="670.6161417700514" r="34" fill="white"/><circle cx="89.07142857142858" cy="670.6161417700514" r="34" fill="white"/><circle cx="207.04285714285714" cy="670.6161417700514" r="34" fill="white"/><circle cx="325.01428571428573" cy="670.6161417700514" r="34" fill="white"/><circle cx="442.98571428571427" cy="670.6161417700514" r="34" fill="white"/><circle cx="560.9571428571428" cy="670.6161417700514" r="34" fill="white"/><circle cx="678.9285714285714" cy="670.6161417700514" r="34" fill="white"/><circle cx="796.9" cy="670.6161417700514" r="34" fill="white"/><circle cx="-28.899999999999977" cy="772.5105846604783" r="34" fill="white"/><circle cx="108.73333333333335" cy="772.5105846604783" r="34" fill="white"/><circle cx="246.36666666666667" cy="772.5105846604783" r="34" fill="white"/><circle cx="384" cy="772.5105846604783" r="34" fill="white"/><circle cx="521.6333333333333" cy="772.5105846604783" r="34" fill="white"/><circle cx="659.2666666666667" cy="772.5105846604783" r="34" fill="white"/><circle cx="796.9" cy="772.5105846604783" r="34" fill="white"/></svg>