<svg xmlns="http://www.w3.org/2000/svg" viewBox="0 0 1024 1024" preserveAspectRatio="xMidYMid slice"><rect width="1024" height="1024" fill="transparent"/><rect x="0" y="0" width="1024" height="34" fill="#2D5FE5"/><path d="M -69 34 A 30 30 0 0 0 -9 34 L -69 34 Z" fill="#f7f1e3"/><path d="M -18.909090909090907 34 A 30 30 0 0 0 41.09090909090909 34 L -18.909090909090907 34 Z" fill="#f7f1e3"/><path d="M 31.181818181818187 34 A 30 30 0 0 0 91.18181818181819 34 L 31.181818181818187 34 Z" fill="#f7f1e3"/><path d="M 81.27272727272728 34 A 30 30 0 0 0 141.27272727272728 34 L 81.27272727272728 34 Z" fill="#f7f1e3"/><path d="M 131.36363636363637 34 A 30 30 0 0 0 191.36363636363637 34 L 131.36363636363637 34 Z" fill="#f7f1e3"/><path d="M 181.45454545454547 34 A 30 30 0 0 0 241.45454545454547 34 L 181.45454545454547 34 Z" fill="#f7f1e3"/><path d="M 231.54545454545456 34 A 30 30 0 0 0 291.54545454545456 34 L 231.54545454545456 34 Z" fill="#f7f1e3"/><path d="M 281.6363636363636 34 A 30 30 0 0 0 341.6363636363636 34 L 281.6363636363636 34 Z" fill="#f7f1e3"/><path d="M 331.72727272727275 34 A 30 30 0 0 0 391.72727272727275 34 L 331.72727272727275 34 Z" fill="#f7f1e3"/><path d="M 381.81818181818187 34 A 30 30 0 0 0 441.81818181818187 34 L 381.81818181818187 34 Z" fill="#f7f1e3"/><path d="M 431.90909090909093 34 A 30 30 0 0 0 491.90909090909093 34 L 431.90909090909093 34 Z" fill="#f7f1e3"/><path d="M 482 34 A 30 30 0 0 0 542 34 L 482 34 Z" fill="#f7f1e3"/><path d="M 532.0909090909091 34 A 30 30 0 0 0 592.0909090909091 34 L 532.0909090909091 34 Z" fill="#f7f1e3"/><path d="M 582.1818181818182 34 A 30 30 0 0 0 642.1818181818182 34 L 582.1818181818182 34 Z" fill="#f7f1e3"/><path d="M 632.2727272727273 34 A 30 30 0 0 0 692.2727272727273 34 L 632.2727272727273 34 Z" fill="#f7f1e3"/><path d="M 682.3636363636364 34 A 30 30 0 0 0 742.3636363636364 34 L 682.3636363636364 34 Z" fill="#f7f1e3"/><path d="M 732.4545454545455 34 A 30 30 0 0 0 792.4545454545455 34 L 732.4545454545455 34 Z" fill="#f7f1e3"/><path d="M 782.5454545454546 34 A 30 30 0 0 0 842.5454545454546 34 L 782.5454545454546 34 Z" fill="#f7f1e3"/><path d="M 832.6363636363637 34 A 30 30 0 0 0 892.6363636363637 34 L 832.6363636363637 34 Z" fill="#f7f1e3"/><path d="M 882.7272727272727 34 A 30 30 0 0 0 942.7272727272727 34 L 882.7272727272727 34 Z" fill="#f7f1e3"/><path d="M 932.8181818181819 34 A 30 30 0 0 0 992.8181818181819 34 L 932.8181818181819 34 Z" fill="#f7f1e3"/><path d="M 982.909090909091 34 A 30 30 0 0 0 1042.909090909091 34 L 982.909090909091 34 Z" fill="#f7f1e3"/><path d="M 1033 34 A 30 30 0 0 0 1093 34 L 1033 34 Z" fill="#f7f1e3"/><circle cx="-39" cy="44.2" r="30" fill="#2D5FE5"/><circle cx="11.090909090909093" cy="44.2" r="30" fill="#2D5FE5"/><circle cx="61.18181818181819" cy="44.2" r="30" fill="#2D5FE5"/><circle cx="111.27272727272728" cy="44.2" r="30" fill="#2D5FE5"/><circle cx="161.36363636363637" cy="44.2" r="30" fill="#2D5FE5"/><circle cx="211.45454545454547" cy="44.2" r="30" fill="#2D5FE5"/><circle cx="261.54545454545456" cy="44.2" r="30" fill="#2D5FE5"/><circle cx="311.6363636363636" cy="44.2" r="30" fill="#2D5FE5"/><circle cx="361.72727272727275" cy="44.2" r="30" fill="#2D5FE5"/><circle cx="411.81818181818187" cy="44.2" r="30" fill="#2D5FE5"/><circle cx="461.90909090909093" cy="44.2" r="30" fill="#2D5FE5"/><circle cx="512" cy="44.2" r="30" fill="#2D5FE5"/><circle cx="562.0909090909091" cy="44.2" r="30" fill="#2D5FE5"/><circle cx="612.1818181818182" cy="44.2" r="30" fill="#2D5FE5"/><circle cx="662.2727272727273" cy="44.2" r="30" fill="#2D5FE5"/><circle cx="712.3636363636364" cy="44.2" r="30" fill="#2D5FE5"/><circle cx="762.4545454545455" cy="44.2" r="30" fill="#2D5FE5"/><circle cx="812.5454545454546" cy="44.2" r="30" fill="#2D5FE5"/><circle cx="862.6363636363637" cy="44.2" r="30" fill="#2D5FE5"/><circle cx="912.7272727272727" cy="44.2" r="30" fill="#2D5FE5"/><circle cx="962.8181818181819" cy="44.2" r="30" fill="#2D5FE5"/><circle cx="1012.909090909091" cy="44.2" r="30" fill="#2D5FE5"/><circle cx="1063" cy="44.2" r="30" fill="#2D5FE5"/><circle cx="-8.38888888888889" cy="78.2" r="30" fill="#2D5FE5"/><circle cx="52.83333333333333" cy="78.2" r="30" fill="#2D5FE5"/><circle cx="114.05555555555556" cy="78.2" r="30" fill="#2D5FE5"/><circle cx="175.27777777777777" cy="78.2" r="30" fill="#2D5FE5"/><circle cx="236.5" cy="78.2" r="30" fill="#2D5FE5"/><circle cx="297.7222222222222" cy="78.2" r="30" fill="#2D5FE5"/><circle cx="358.9444444444444" cy="78.2" r="30" fill="#2D5FE5"/><circle cx="420.16666666666663" cy="78.2" r="30" fill="#2D5FE5"/><circle cx="481.38888888888886" cy="78.2" r="30" fill="#2D5FE5"/><circle cx="542.6111111111111" cy="78.2" r="30" fill="#2D5FE5"/><circle cx="603.8333333333333" cy="78.2" r="30" fill="#2D5FE5"/><circle cx="665.0555555555555" cy="78.2" r="30" fill="#2D5FE5"/><circle cx="726.2777777777777" cy="78.2" r="30" fill="#2D5FE5"/><circle cx="787.5" cy="78.2" r="30" fill="#2D5FE5"/><circle cx="848.7222222222222" cy="78.2" r="30" fill="#2D5FE5"/><circle cx="909.9444444444445" cy="78.2" r="30" fill="#2D5FE5"/><circle cx="971.1666666666666" cy="78.2" r="30" fill="#2D5FE5"/><circle cx="1032.388888888889" cy="78.2" r="30" fill="#2D5FE5"/><circle cx="1093.611111111111" cy="78.2" r="30" fill="#2D5FE5"/><circle cx="-39" cy="117.1214672869455" r="30" fill="#2D5FE5"/><circle cx="34.46666666666667" cy="117.1214672869455" r="30" fill="#2D5FE5"/><circle cx="107.93333333333334" cy="117.1214672869455" r="30" fill="#2D5FE5"/><circle cx="181.4" cy="117.1214672869455" r="30" fill="#2D5FE5"/><circle cx="254.86666666666667" cy="117.1214672869455" r="30" fill="#2D5FE5"/><circle cx="328.33333333333337" cy="117.1214672869455" r="30" fill="#2D5FE5"/><circle cx="401.8" cy="117.1214672869455" r="30" fill="#2D5FE5"/><circle cx="475.26666666666665" cy="117.1214672869455" r="30" fill="#2D5FE5"/><circle cx="548.7333333333333" cy="117.1214672869455" r="30" fill="#2D5FE5"/><circle cx="622.2" cy="117.1214672869455" r="30" fill="#2D5FE5"/><circle cx="695.6666666666667" cy="117.1214672869455" r="30" fill="#2D5FE5"/><circle cx="769.1333333333333" cy="117.1214672869455" r="30" fill="#2D5FE5"/><circle cx="842.6" cy="117.1214672869455" r="30" fill="#2D5FE5"/><circle cx="916.0666666666667" cy="117.1214672869455" r="30" fill="#2D5FE5"/><circle cx="989.5333333333333" cy="117.1214672869455" r="30" fill="#2D5FE5"/><circle cx="1063" cy="117.1214672869455" r="30" fill="#2D5FE5"/><circle cx="12.892857142857146" cy="162.42803004031754" r="30" fill="#2D5FE5"/><circle cx="89.67857142857144" cy="162.42803004031754" r="30" fill="#2D5FE5"/><circle cx="166.46428571428572" cy="162.42803004031754" r="30" fill="#2D5FE5"/><circle cx="243.25000000000003" cy="162.42803004031754" r="30" fill="#2D5FE5"/><circle cx="320.03571428571433" cy="162.42803004031754" r="30" fill="#2D5FE5"/><circle cx="396.8214285714286" cy="162.42803004031754" r="30" fill="#2D5FE5"/><circle cx="473.60714285714295" cy="162.42803004031754" r="30" fill="#2D5FE5"/><circle cx="550.3928571428571" cy="162.42803004031754" r="30" fill="#2D5FE5"/><circle cx="627.1785714285714" cy="162.42803004031754" r="30" fill="#2D5FE5"/><circle cx="703.9642857142858" cy="162.42803004031754" r="30" fill="#2D5FE5"/><circle cx="780.75" cy="162.42803004031754" r="30" fill="#2D5FE5"/><circle cx="857.5357142857143" cy="162.42803004031754" r="30" fill="#2D5FE5"/><circle cx="934.3214285714287" cy="162.42803004031754" r="30" fill="#2D5FE5"/><circle cx="1011.1071428571429" cy="162.42803004031754" r="30" fill="#2D5FE5"/><circle cx="1087.892857142857" cy="162.42803004031754" r="30" fill="#2D5FE5"/><circle cx="-25.5" cy="214.8205022432785" r="30" fill="#2D5FE5"/><circle cx="57.19230769230769" cy="214.8205022432785" r="30" fill="#2D5FE5"/><circle cx="139.8846153846154" cy="214.8205022432785" r="30" fill="#2D5FE5"/><circle cx="222.5769230769231" cy="214.8205022432785" r="30" fill="#2D5FE5"/><circle cx="305.2692307692308" cy="214.8205022432785" r="30" fill="#2D5FE5"/><circle cx="387.96153846153845" cy="214.8205022432785" r="30" fill="#2D5FE5"/><circle cx="470.6538461538462" cy="214.8205022432785" r="30" fill="#2D5FE5"/><circle cx="553.3461538461538" cy="214.8205022432785" r="30" fill="#2D5FE5"/><circle cx="636.0384615384615" cy="214.8205022432785" r="30" fill="#2D5FE5"/><circle cx="718.7307692307693" cy="214.8205022432785" r="30" fill="#2D5FE5"/><circle cx="801.4230769230769" cy="214.8205022432785" r="30" fill="#2D5FE5"/><circle cx="884.1153846153846" cy="214.8205022432785" r="30" fill="#2D5FE5"/><circle cx="966.8076923076924" cy="214.8205022432785" r="30" fill="#2D5FE5"/><circle cx="1049.5" cy="214.8205022432785" r="30" fill="#2D5FE5"/><circle cx="-25.5" cy="274.79616231421693" r="30" fill="#2D5FE5"/><circle cx="64.08333333333333" cy="274.79616231421693" r="30" fill="#2D5FE5"/><circle cx="153.66666666666666" cy="274.79616231421693" r="30" fill="#2D5FE5"/><circle cx="243.25" cy="274.79616231421693" r="30" fill="#2D5FE5"/><circle cx="332.8333333333333" cy="274.79616231421693" r="30" fill="#2D5FE5"/><circle cx="422.41666666666663" cy="274.79616231421693" r="30" fill="#2D5FE5"/><circle cx="512" cy="274.79616231421693" r="30" fill="#2D5FE5"/><circle cx="601.5833333333333" cy="274.79616231421693" r="30" fill="#2D5FE5"/><circle cx="691.1666666666666" cy="274.79616231421693" r="30" fill="#2D5FE5"/><circle cx="780.75" cy="274.79616231421693" r="30" fill="#2D5FE5"/><circle cx="870.3333333333333" cy="274.79616231421693" r="30" fill="#2D5FE5"/><circle cx="959.9166666666666" cy="274.79616231421693" r="30" fill="#2D5FE5"/><circle cx="1049.5" cy="274.79616231421693" r="30" fill="#2D5FE5"/><circle cx="-25.5" cy="342.7476342827658" r="30" fill="#2D5FE5"/><circle cx="72.22727272727273" cy="342.7476342827658" r="30" fill="#2D5FE5"/><circle cx="169.95454545454547" cy="342.7476342827658" r="30" fill="#2D5FE5"/><circle cx="267.6818181818182" cy="342.7476342827658" r="30" fill="#2D5FE5"/><circle cx="365.40909090909093" cy="342.7476342827658" r="30" fill="#2D5FE5"/><circle cx="463.1363636363637" cy="342.7476342827658" r="30" fill="#2D5FE5"/><circle cx="560.8636363636364" cy="342.7476342827658" r="30" fill="#2D5FE5"/><circle cx="658.5909090909091" cy="342.7476342827658" r="30" fill="#2D5FE5"/><circle cx="756.3181818181819" cy="342.7476342827658" r="30" fill="#2D5FE5"/><circle cx="854.0454545454546" cy="342.7476342827658" r="30" fill="#2D5FE5"/><circle cx="951.7727272727274" cy="342.7476342827658" r="30" fill="#2D5FE5"/><circle cx="1049.5" cy="342.7476342827658" r="30" fill="#2D5FE5"/><circle cx="-25.5" cy="419.0024394105057" r="30" fill="#2D5FE5"/><circle cx="72.22727272727273" cy="419.0024394105057" r="30" fill="#2D5FE5"/><circle cx="169.95454545454547" cy="419.0024394105057" r="30" fill="#2D5FE5"/><circle cx="267.6818181818182" cy="419.0024394105057" r="30" fill="#2D5FE5"/><circle cx="365.40909090909093" cy="419.0024394105057" r="30" fill="#2D5FE5"/><circle cx="463.1363636363637" cy="419.0024394105057" r="30" fill="#2D5FE5"/><circle cx="560.8636363636364" cy="419.0024394105057" r="30" fill="#2D5FE5"/><circle cx="658.5909090909091" cy="419.0024394105057" r="30" fill="#2D5FE5"/><circle cx="756.3181818181819" cy="419.0024394105057" r="30" fill="#2D5FE5"/><circle cx="854.0454545454546" cy="419.0024394105057" r="30" fill="#2D5FE5"/><circle cx="951.7727272727274" cy="419.0024394105057" r="30" fill="#2D5FE5"/><circle cx="1049.5" cy="419.0024394105057" r="30" fill="#2D5FE5"/><circle cx="-25.5" cy="503.84322477468385" r="30" fill="#2D5FE5"/><circle cx="82" cy="503.84322477468385" r="30" fill="#2D5FE5"/><circle cx="189.5" cy="503.84322477468385" r="30" fill="#2D5FE5"/><circle cx="297" cy="503.84322477468385" r="30" fill="#2D5FE5"/><circle cx="404.5" cy="503.84322477468385" r="30" fill="#2D5FE5"/><circle cx="512" cy="503.84322477468385" r="30" fill="#2D5FE5"/><circle cx="619.5" cy="503.84322477468385" r="30" fill="#2D5FE5"/><circle cx="727" cy="503.84322477468385" r="30" fill="#2D5FE5"/><circle cx="834.5" cy="503.84322477468385" r="30" fill="#2D5FE5"/><circle cx="942" cy="503.84322477468385" r="30" fill="#2D5FE5"/><circle cx="1049.5" cy="503.84322477468385" r="30" fill="#2D5FE5"/><circle cx="-25.5" cy="597.5196207615822" r="30" fill="#2D5FE5"/><circle cx="93.94444444444444" cy="597.5196207615822" r="30" fill="#2D5FE5"/><circle cx="213.38888888888889" cy="597.5196207615822" r="30" fill="#2D5FE5"/><circle cx="332.8333333333333" cy="597.5196207615822" r="30" fill="#2D5FE5"/><circle cx="452.27777777777777" cy="597.5196207615822" r="30" fill="#2D5FE5"/><circle cx="571.7222222222222" cy="597.5196207615822" r="30" fill="#2D5FE5"/><circle cx="691.1666666666666" cy="597.5196207615822" r="30" fill="#2D5FE5"/><circle cx="810.6111111111111" cy="597.5196207615822" r="30" fill="#2D5FE5"/><circle cx="930.0555555555555" cy="597.5196207615822" r="30" fill="#2D5FE5"/><circle cx="1049.5" cy="597.5196207615822" r="30" fill="#2D5FE5"/><circle cx="-25.5" cy="700.2558357993228" r="30" fill="#2D5FE5"/><circle cx="108.875" cy="700.2558357993228" r="30" fill="#2D5FE5"/><circle cx="243.25" cy="700.2558357993228" r="30" fill="#2D5FE5"/><circle cx="377.625" cy="700.2558357993228" r="30" fill="#2D5FE5"/><circle cx="512" cy="700.2558357993228" r="30" fill="#2D5FE5"/><circle cx="646.375" cy="700.2558357993228" r="30" fill="#2D5FE5"/><circle cx="780.75" cy="700.2558357993228" r="30" fill="#2D5FE5"/><circle cx="915.125" cy="700.2558357993228" r="30" fill="#2D5FE5"/><circle cx="1049.5" cy="700.2558357993228" r="30" fill="#2D5FE5"/></svg>